<?xml version="1.0" encoding="UTF-8" standalone="no"?>
<!-- Created with Inkscape (http://www.inkscape.org/) -->

<svg
   width="1200"
   height="628"
   viewBox="0 0 1200 628"
   version="1.1"
   id="svg5"
   inkscape:version="1.1.2 (0a00cf5339, 2022-02-04)"
   sodipodi:docname="inkscape-banner-1200x628.svg"
   xmlns:inkscape="http://www.inkscape.org/namespaces/inkscape"
   xmlns:sodipodi="http://sodipodi.sourceforge.net/DTD/sodipodi-0.dtd"
   xmlns="http://www.w3.org/2000/svg"
   xmlns:svg="http://www.w3.org/2000/svg">
  <sodipodi:namedview
     id="namedview7"
     pagecolor="#ffffff"
     bordercolor="#666666"
     borderopacity="1.0"
     inkscape:pageshadow="2"
     inkscape:pageopacity="0.0"
     inkscape:pagecheckerboard="0"
     inkscape:document-units="px"
     showgrid="false"
     inkscape:zoom="0.64052329"
     inkscape:cx="668.98426"
     inkscape:cy="560.47923"
     inkscape:window-width="1920"
     inkscape:window-height="1019"
     inkscape:window-x="0"
     inkscape:window-y="0"
     inkscape:window-maximized="1"
     inkscape:current-layer="g890"
     units="px"
     width="1200px" />
  <defs
     id="defs2">
    <style
       id="style860">.cls-1{fill:#ea4335;}.cls-2{fill:#4285f4;}.cls-3{fill:#34a853;}.cls-4{fill:#fbbc05;}.cls-5{fill:#5f6368;}</style>
  </defs>
  <g
     inkscape:label="Layer 1"
     inkscape:groupmode="layer"
     id="layer1">
    <g
       id="g890"
       transform="translate(-421.77583,-4.9287615)">
      <rect
         style="opacity:0.99;fill:#f2f2f2;stroke-linecap:round;stroke-linejoin:round"
         id="rect16626"
         width="1200"
         height="628"
         x="421.77582"
         y="4.9287615"
         rx="15"
         ry="15" />
      <g
         transform="matrix(0.78617859,0,0,0.78617859,175.8087,219.6829)"
         id="g876">
        <g
           transform="matrix(2.3438,0,0,2.3438,361.2,-114.94)"
           id="g874">
          <path
             d="m 170.25,56.819 22.253,-22.253 1.483,-9.37 C 153.435,-11.677 88.976,-7.496 52.416,33.92 42.262,45.423 34.729,59.764 30.712,74.573 l 7.97,-1.123 44.505,-7.339 3.436,-3.514 c 19.797,-21.742 53.27,-24.667 76.128,-6.168 z"
             fill="#ea4335"
             id="path866" />
          <path
             d="M 224.2,73.918 C 219.085,55.082 208.584,38.149 193.983,25.196 l -31.232,31.232 c 13.188,10.776 20.701,27.01 20.379,44.037 v 5.544 c 15.351,0 27.797,12.445 27.797,27.796 0,15.352 -12.446,27.485 -27.797,27.485 h -55.671 l -5.466,5.934 v 33.34 l 5.466,5.231 h 55.671 c 39.93,0.311 72.552,-31.494 72.863,-71.424 0.188,-24.203 -11.745,-46.893 -31.793,-60.453"
             fill="#4285f4"
             id="path868" />
          <path
             d="m 71.87,205.8 h 55.593 V 161.294 H 71.87 c -3.961,-0.001 -7.797,-0.852 -11.399,-2.498 l -7.887,2.42 -22.409,22.253 -1.952,7.574 c 12.567,9.489 27.9,14.825 43.647,14.757"
             fill="#34a853"
             id="path870" />
          <path
             d="m 71.87,61.426 c -39.931,0.238 -72.107,32.802 -71.869,72.732 0.133,22.298 10.547,43.288 28.222,56.881 L 60.471,158.792 C 46.48,152.471 40.263,136.006 46.584,122.016 c 6.32,-13.99 22.786,-20.207 36.775,-13.887 6.165,2.785 11.102,7.723 13.887,13.887 L 129.494,89.769 C 115.773,71.832 94.453,61.345 71.87,61.426"
             fill="#fbbc05"
             id="path872" />
        </g>
      </g>
      <g
         id="g8374"
         transform="translate(0,-47.444314)">
        <g
           aria-label="Google Cloud Platform Shell References"
           id="text2844"
           style="font-weight:300;font-size:53.3333px;line-height:1.25;font-family:'Noto Sans';-inkscape-font-specification:'Noto Sans Light'">
          <path
             d="m 985.40957,284.34211 h 15.09333 v 19.73332 q -2.98667,1.01333 -6.24,1.6 -3.2,0.58666 -7.30666,0.58666 -8.53333,0 -13.11999,-5.01333 -4.58667,-5.01333 -4.58667,-14.61332 0,-5.97333 2.29333,-10.34666 2.34667,-4.37333 6.77333,-6.77333 4.42667,-2.4 10.82666,-2.4 3.04,0 5.97333,0.64 2.93333,0.64 5.33337,1.70666 l -2.6667,6.45333 q -1.76,-0.90666 -4,-1.49333 -2.24,-0.58666 -4.69333,-0.58666 -3.52,0 -6.13333,1.59999 -2.56,1.6 -4,4.53334 -1.38666,2.87999 -1.38666,6.82666 0,3.73333 1.01333,6.61333 1.01333,2.88 3.2,4.53333 2.18666,1.6 5.70666,1.6 1.70667,0 2.88,-0.16 1.22666,-0.16 2.24,-0.37334 v -7.94666 h -7.2 z"
             style="font-weight:bold"
             id="path16555" />
          <path
             d="m 1035.3828,291.11544 q 0,7.25332 -3.84,11.19999 -3.7866,3.94666 -10.3466,3.94666 -4.0534,0 -7.2534,-1.76 -3.1466,-1.76 -4.96,-5.11999 -1.8133,-3.41333 -1.8133,-8.26666 0,-7.25333 3.7867,-11.14666 3.7866,-3.89334 10.4,-3.89334 4.1066,0 7.2533,1.76 3.1467,1.76 4.96,5.12 1.8133,3.30666 1.8133,8.16 z m -20.1066,0 q 0,4.31999 1.3866,6.55999 1.44,2.18667 4.64,2.18667 3.1467,0 4.5334,-2.18667 1.44,-2.24 1.44,-6.55999 0,-4.32 -1.44,-6.45333 -1.3867,-2.18667 -4.5867,-2.18667 -3.1467,0 -4.5867,2.18667 -1.3866,2.13333 -1.3866,6.45333 z"
             style="font-weight:bold"
             id="path16552" />
          <path
             d="m 1068.3961,291.11544 q 0,7.25332 -3.84,11.19999 -3.7867,3.94666 -10.3467,3.94666 -4.0533,0 -7.2533,-1.76 -3.1466,-1.76 -4.96,-5.11999 -1.8133,-3.41333 -1.8133,-8.26666 0,-7.25333 3.7867,-11.14666 3.7866,-3.89334 10.3999,-3.89334 4.1067,0 7.2534,1.76 3.1466,1.76 4.96,5.12 1.8133,3.30666 1.8133,8.16 z m -20.1066,0 q 0,4.31999 1.3866,6.55999 1.44,2.18667 4.64,2.18667 3.1467,0 4.5333,-2.18667 1.44,-2.24 1.44,-6.55999 0,-4.32 -1.44,-6.45333 -1.3866,-2.18667 -4.5866,-2.18667 -3.1467,0 -4.5867,2.18667 -1.3866,2.13333 -1.3866,6.45333 z"
             style="font-weight:bold"
             id="path16549" />
          <path
             d="m 1084.3961,276.07544 q 5.3866,0 8.4266,4.26667 h 0.2134 l 0.64,-3.73333 h 6.72 v 29.17331 q 0,6.24 -3.68,9.49333 -3.68,3.25333 -10.88,3.25333 -3.0934,0 -5.76,-0.37333 -2.6134,-0.37333 -5.12,-1.33333 v -6.34667 q 5.3866,2.24 11.36,2.24 6.1333,0 6.1333,-6.61333 v -0.58666 q 0,-0.90667 0.053,-1.86667 0.1067,-0.96 0.16,-1.70666 h -0.2133 q -1.4933,2.29333 -3.5733,3.30666 -2.08,1.01333 -4.6934,1.01333 -5.1733,0 -8.1066,-3.94666 -2.88,-4 -2.88,-11.09333 0,-7.14666 2.9866,-11.14666 2.9867,-4 8.2134,-4 z m 2.5066,6.45333 q -5.6,0 -5.6,8.8 0,8.69333 5.7067,8.69333 3.04,0 4.48,-1.70667 1.4933,-1.76 1.4933,-6.08 v -0.95999 q 0,-4.69334 -1.44,-6.72 -1.44,-2.02667 -4.64,-2.02667 z"
             style="font-weight:bold"
             id="path16546" />
          <path
             d="m 1116.6627,305.72876 h -7.9467 v -40.53331 h 7.9467 z"
             style="font-weight:bold"
             id="path16543" />
          <path
             d="m 1136.9826,276.07544 q 6.0267,0 9.5467,3.46667 3.52,3.41333 3.52,9.75999 v 3.84 h -18.7734 q 0.1067,3.36 1.9734,5.28 1.92,1.92 5.28,1.92 2.8266,0 5.12,-0.53334 2.2933,-0.58666 4.7466,-1.76 v 6.13333 q -2.1333,1.06667 -4.5333,1.54667 -2.3467,0.53333 -5.7067,0.53333 -4.3733,0 -7.7333,-1.6 -3.36,-1.65333 -5.28,-4.95999 -1.92,-3.30667 -1.92,-8.32 0,-5.12 1.7067,-8.47999 1.76,-3.41333 4.8533,-5.12 3.0933,-1.70667 7.2,-1.70667 z m 0.053,5.65333 q -2.2933,0 -3.84,1.49334 -1.4933,1.49333 -1.76,4.63999 h 11.1467 q -0.053,-2.66666 -1.3867,-4.37333 -1.3333,-1.76 -4.16,-1.76 z"
             style="font-weight:bold"
             id="path16540" />
          <path
             d="m 1187.1691,273.83545 q -4.64,0 -7.0933,3.46666 -2.4533,3.46666 -2.4533,9.49333 0,6.07999 2.24,9.43999 2.2933,3.30667 7.3066,3.30667 2.3467,0 4.64,-0.53334 2.3467,-0.53333 5.0667,-1.49333 v 6.77333 q -2.5067,1.01333 -4.96,1.49333 -2.4533,0.48 -5.4933,0.48 -5.8667,0 -9.7067,-2.4 -3.7867,-2.45333 -5.6,-6.82666 -1.8133,-4.42666 -1.8133,-10.29333 0,-5.75999 2.08,-10.18666 2.08,-4.42666 6.0266,-6.93333 4,-2.50666 9.76,-2.50666 2.8267,0 5.6534,0.74667 2.88,0.69333 5.4933,1.91999 l -2.6133,6.56 q -2.1334,-1.01333 -4.32,-1.76 -2.1334,-0.74666 -4.2134,-0.74666 z"
             style="font-weight:bold"
             id="path16537" />
          <path
             d="m 1212.2891,305.72876 h -7.9467 v -40.53331 h 7.9467 z"
             style="font-weight:bold"
             id="path16534" />
          <path
             d="m 1247.0623,291.11544 q 0,7.25332 -3.84,11.19999 -3.7867,3.94666 -10.3467,3.94666 -4.0533,0 -7.2533,-1.76 -3.1467,-1.76 -4.96,-5.11999 -1.8133,-3.41333 -1.8133,-8.26666 0,-7.25333 3.7866,-11.14666 3.7867,-3.89334 10.4,-3.89334 4.1067,0 7.2534,1.76 3.1466,1.76 4.96,5.12 1.8133,3.30666 1.8133,8.16 z m -20.1067,0 q 0,4.31999 1.3867,6.55999 1.44,2.18667 4.64,2.18667 3.1467,0 4.5333,-2.18667 1.44,-2.24 1.44,-6.55999 0,-4.32 -1.44,-6.45333 -1.3866,-2.18667 -4.5866,-2.18667 -3.1467,0 -4.5867,2.18667 -1.3867,2.13333 -1.3867,6.45333 z"
             style="font-weight:bold"
             id="path16531" />
          <path
             d="m 1280.3422,276.60878 v 29.11998 h -6.08 l -1.0666,-3.73333 h -0.4267 q -1.3867,2.24 -3.84,3.25333 -2.4,1.01333 -5.12,1.01333 -4.6933,0 -7.52,-2.50666 -2.8267,-2.56 -2.8267,-8.16 v -18.98665 h 7.9467 v 17.01332 q 0,3.09333 1.12,4.69333 1.12,1.6 3.5733,1.6 3.6267,0 4.96,-2.45333 1.3334,-2.50667 1.3334,-7.14666 v -13.70666 z"
             style="font-weight:bold"
             id="path16528" />
          <path
             d="m 1297.8889,306.26209 q -4.8533,0 -7.9467,-3.78666 -3.04,-3.84 -3.04,-11.25333 0,-7.46666 3.0934,-11.30666 3.0933,-3.84 8.1066,-3.84 3.1467,0 5.1733,1.22667 2.0267,1.22667 3.2,3.04 h 0.2667 q -0.16,-0.85333 -0.3733,-2.45333 -0.2134,-1.65334 -0.2134,-3.36 v -9.33333 h 7.9467 v 40.53331 h -6.08 l -1.5467,-3.78666 h -0.32 q -1.1733,1.81333 -3.1466,3.09333 -1.9733,1.22666 -5.12,1.22666 z m 2.7733,-6.34666 q 3.3067,0 4.64,-1.92 1.3333,-1.97333 1.3867,-5.86666 v -0.85333 q 0,-4.26667 -1.3334,-6.50667 -1.28,-2.24 -4.7999,-2.24 -2.6134,0 -4.1067,2.29334 -1.4933,2.23999 -1.4933,6.50666 0,4.26666 1.4933,6.45333 1.4933,2.13333 4.2133,2.13333 z"
             style="font-weight:bold"
             id="path16525" />
          <path
             d="m 1349.0887,267.64878 q 7.36,0 10.72,3.2 3.4133,3.14667 3.4133,8.69333 0,3.30666 -1.3866,6.23999 -1.3867,2.88 -4.64,4.64 -3.2,1.76 -8.7467,1.76 h -3.4667 v 13.54666 h -8.0533 v -38.07998 z m -0.4267,6.61333 h -3.68 v 11.30666 h 2.6667 q 3.4133,0 5.3867,-1.33333 2.0266,-1.38667 2.0266,-4.42666 0,-5.54667 -6.4,-5.54667 z"
             style="font-weight:bold"
             id="path16522" />
          <path
             d="m 1377.7286,305.72876 h -7.9467 v -40.53331 h 7.9467 z"
             style="font-weight:bold"
             id="path16519" />
          <path
             d="m 1397.9952,276.02211 q 5.8666,0 8.96,2.56 3.1466,2.50666 3.1466,7.73333 v 19.41332 h -5.5466 l -1.5467,-3.94666 h -0.2133 q -1.8667,2.34666 -3.9467,3.41333 -2.08,1.06666 -5.7067,1.06666 -3.8933,0 -6.4533,-2.24 -2.56,-2.29333 -2.56,-6.98666 0,-4.64 3.2533,-6.82666 3.2534,-2.24 9.76,-2.45333 l 5.0667,-0.16 v -1.28 q 0,-2.29333 -1.2267,-3.36 -1.1733,-1.06667 -3.3066,-1.06667 -2.1334,0 -4.16,0.64 -2.0267,0.58667 -4.0534,1.49334 l -2.6133,-5.38667 q 2.3467,-1.22666 5.1733,-1.92 2.88,-0.69333 5.9734,-0.69333 z m 1.12,16.31999 q -3.84,0.10667 -5.3334,1.38667 -1.4933,1.28 -1.4933,3.35999 0,1.81334 1.0667,2.61334 1.0666,0.74666 2.7733,0.74666 2.56,0 4.32,-1.49333 1.76,-1.54667 1.76,-4.32 v -2.4 z"
             style="font-weight:bold"
             id="path16516" />
          <path
             d="m 1430.5284,299.91543 q 1.3333,0 2.56,-0.26667 1.2267,-0.26666 2.4533,-0.64 v 5.92 q -1.28,0.53333 -3.2,0.90667 -1.8666,0.42666 -4.1066,0.42666 -2.6134,0 -4.6934,-0.85333 -2.0266,-0.85333 -3.2533,-2.93333 -1.1733,-2.13333 -1.1733,-5.86666 v -14.02666 h -3.7867 v -3.36 l 4.3733,-2.66667 2.2934,-6.13333 h 5.0666 v 6.18667 h 8.16 v 5.97333 h -8.16 v 14.02666 q 0,1.65333 0.96,2.50666 0.96,0.8 2.5067,0.8 z"
             style="font-weight:bold"
             id="path16513" />
          <path
             d="m 1457.5149,282.58211 h -6.88 v 23.14665 h -7.9466 v -23.14665 h -4.3733 v -3.84 l 4.3733,-2.13333 v -2.13333 q 0,-3.73334 1.2267,-5.76 1.28,-2.08 3.5733,-2.93333 2.3467,-0.85334 5.4933,-0.85334 2.3467,0 4.2133,0.37334 1.92,0.37333 3.0934,0.85333 l -2.0267,5.81333 q -0.9067,-0.26667 -1.9733,-0.48 -1.0667,-0.26667 -2.4534,-0.26667 -1.6533,0 -2.4533,1.01334 -0.7467,1.01333 -0.7467,2.55999 v 1.81334 h 6.88 z"
             style="font-weight:bold"
             id="path16510" />
          <path
             d="m 1488.5016,291.11544 q 0,7.25332 -3.84,11.19999 -3.7867,3.94666 -10.3467,3.94666 -4.0533,0 -7.2533,-1.76 -3.1467,-1.76 -4.96,-5.11999 -1.8134,-3.41333 -1.8134,-8.26666 0,-7.25333 3.7867,-11.14666 3.7867,-3.89334 10.4,-3.89334 4.1067,0 7.2533,1.76 3.1467,1.76 4.96,5.12 1.8134,3.30666 1.8134,8.16 z m -20.1067,0 q 0,4.31999 1.3867,6.55999 1.44,2.18667 4.64,2.18667 3.1466,0 4.5333,-2.18667 1.44,-2.24 1.44,-6.55999 0,-4.32 -1.44,-6.45333 -1.3867,-2.18667 -4.5867,-2.18667 -3.1466,0 -4.5866,2.18667 -1.3867,2.13333 -1.3867,6.45333 z"
             style="font-weight:bold"
             id="path16507" />
          <path
             d="m 1511.3282,276.07544 q 0.5867,0 1.3867,0.0533 0.8,0.0533 1.28,0.16 l -0.5867,7.46666 q -0.3733,-0.10667 -1.12,-0.16 -0.6933,-0.10667 -1.2267,-0.10667 -2.0266,0 -3.8933,0.74667 -1.8667,0.69333 -3.04,2.29333 -1.12,1.6 -1.12,4.37333 v 14.82666 h -7.9467 v -29.11998 h 6.0267 l 1.1733,4.90666 h 0.3734 q 1.28,-2.24 3.52,-3.84 2.24,-1.6 5.1733,-1.6 z"
             style="font-weight:bold"
             id="path16504" />
          <path
             d="m 1553.4614,276.07544 q 4.96,0 7.4667,2.56 2.56,2.50667 2.56,8.10666 v 18.98666 h -7.9467 v -17.01332 q 0,-6.29333 -4.3733,-6.29333 -3.1467,0 -4.48,2.24 -1.3334,2.23999 -1.3334,6.45333 v 14.61332 h -7.9466 v -17.01332 q 0,-6.29333 -4.3734,-6.29333 -3.3066,0 -4.5866,2.50666 -1.2267,2.45333 -1.2267,7.09333 v 13.70666 h -7.9467 v -29.11998 h 6.08 l 1.0667,3.73333 h 0.4267 q 1.3333,-2.24 3.6266,-3.25333 2.3467,-1.01334 4.8534,-1.01334 3.2,0 5.44,1.06667 2.24,1.01333 3.4133,3.2 h 0.6933 q 1.3334,-2.24 3.68,-3.25333 2.4,-1.01334 4.9067,-1.01334 z"
             style="font-weight:bold"
             id="path16501" />
          <path
             d="m 992.60957,362.47539 q 0,3.41333 -1.70667,5.76 -1.70666,2.34666 -4.69333,3.52 -2.98666,1.17333 -6.77333,1.17333 -3.46666,0 -6.02666,-0.48 -2.56,-0.48 -4.37333,-1.22667 v -3.03999 q 1.97333,0.8 4.69333,1.38666 2.72,0.58667 5.86666,0.58667 4.37333,0 7.09333,-1.86667 2.77333,-1.86666 2.77333,-5.59999 0,-2.24 -1.06666,-3.68 -1.01334,-1.49333 -3.2,-2.56 -2.13333,-1.12 -5.49333,-2.24 -3.2,-1.06667 -5.49333,-2.4 -2.29333,-1.33333 -3.52,-3.30666 -1.22667,-2.02667 -1.22667,-5.06667 0,-3.09333 1.54667,-5.22666 1.6,-2.18666 4.32,-3.30666 2.77333,-1.12 6.29333,-1.12 2.77333,0 5.27999,0.53333 2.50667,0.53333 4.74667,1.49333 l -1.01333,2.66667 q -4.58667,-1.92 -9.12,-1.92 -3.94666,0 -6.45333,1.76 -2.45333,1.70666 -2.45333,5.06666 0,2.45333 1.06667,3.94666 1.06666,1.44 3.09333,2.45334 2.02666,1.01333 4.95999,2.02666 3.36,1.17333 5.76,2.45333 2.45333,1.28 3.78667,3.25334 1.33333,1.91999 1.33333,4.95999 z"
             id="path16498" />
          <path
             d="m 1003.0095,344.82207 q 0,1.12 -0.053,2.13333 -0.053,1.01333 -0.16,1.97333 h 0.2133 q 1.12,-2.34666 3.52,-3.89333 2.4534,-1.54666 6.08,-1.54666 4.9067,0 7.4667,2.50666 2.56,2.50667 2.56,7.84 v 18.55999 h -2.9867 v -18.34666 q 0,-4.05333 -1.8666,-5.97333 -1.8667,-1.97333 -5.44,-1.97333 -9.3334,0 -9.3334,10.82666 v 15.46666 h -3.03996 v -40.53331 h 3.03996 z"
             id="path16495" />
          <path
             d="m 1042.5294,343.48874 q 3.6267,0 6.0267,1.70666 2.4533,1.65334 3.68,4.58667 1.28,2.93333 1.28,6.71999 v 2.08 h -20.2666 q 0,5.65333 2.6133,8.69333 2.6666,2.98666 7.5733,2.98666 2.6133,0 4.5867,-0.42666 1.9733,-0.48 4.32,-1.49333 v 2.77333 q -2.1334,0.96 -4.2134,1.38666 -2.08,0.42667 -4.8,0.42667 -6.3999,0 -9.8133,-3.89333 -3.4133,-3.89333 -3.4133,-10.61333 0,-4.32 1.44,-7.67999 1.4933,-3.36 4.2667,-5.28 2.7733,-1.97333 6.7199,-1.97333 z m -0.053,2.56 q -3.8933,0 -6.3466,2.61333 -2.4,2.61333 -2.7734,7.41333 h 17.0133 q 0,-4.48 -1.9733,-7.25333 -1.92,-2.77333 -5.92,-2.77333 z"
             id="path16492" />
          <path
             d="m 1064.236,372.39539 h -3.04 v -40.53331 h 3.04 z"
             id="path16489" />
          <path
             d="m 1076.6627,372.39539 h -3.04 v -40.53331 h 3.04 z"
             id="path16486" />
          <path
             d="m 1110.0492,334.31541 q 6.8267,0 10.24,2.4 3.4667,2.34666 3.4667,8.05333 0,4.37333 -2.3467,6.87999 -2.2933,2.45333 -5.76,3.46667 l 10.4533,17.27999 h -3.68 l -9.7066,-16.42666 h -9.0667 v 16.42666 h -3.0933 v -38.07998 z m -0.2667,2.72 h -6.1333 v 16.26665 h 7.2 q 4.64,0 7.1467,-2.13333 2.56,-2.18666 2.56,-6.29333 0,-4.37333 -2.6667,-6.07999 -2.6667,-1.76 -8.1067,-1.76 z"
             id="path16483" />
          <path
             d="m 1142.6891,343.48874 q 3.6267,0 6.0267,1.70666 2.4533,1.65334 3.68,4.58667 1.28,2.93333 1.28,6.71999 v 2.08 h -20.2667 q 0,5.65333 2.6133,8.69333 2.6667,2.98666 7.5734,2.98666 2.6133,0 4.5866,-0.42666 1.9734,-0.48 4.32,-1.49333 v 2.77333 q -2.1333,0.96 -4.2133,1.38666 -2.08,0.42667 -4.8,0.42667 -6.4,0 -9.8133,-3.89333 -3.4134,-3.89333 -3.4134,-10.61333 0,-4.32 1.44,-7.67999 1.4934,-3.36 4.2667,-5.28 2.7733,-1.97333 6.72,-1.97333 z m -0.053,2.56 q -3.8934,0 -6.3467,2.61333 -2.4,2.61333 -2.7733,7.41333 h 17.0133 q 0,-4.48 -1.9733,-7.25333 -1.92,-2.77333 -5.92,-2.77333 z"
             id="path16480" />
          <path
             d="m 1172.3956,346.4754 h -6.7733 v 25.91999 h -3.04 V 346.4754 h -5.2266 v -1.65333 l 5.2266,-0.90667 v -2.82666 q 0,-9.49333 8.48,-9.49333 1.4933,0 2.72,0.26667 1.2267,0.21333 2.24,0.53333 l -0.6933,2.50667 q -0.96,-0.32 -2.08,-0.53334 -1.0667,-0.21333 -2.1334,-0.21333 -2.88,0 -4.2133,1.65333 -1.28,1.65333 -1.28,5.28 v 2.93333 h 6.7733 z"
             id="path16477" />
          <path
             d="m 1188.6089,343.48874 q 3.6266,0 6.0266,1.70666 2.4534,1.65334 3.68,4.58667 1.28,2.93333 1.28,6.71999 v 2.08 h -20.2666 q 0,5.65333 2.6133,8.69333 2.6667,2.98666 7.5733,2.98666 2.6134,0 4.5867,-0.42666 1.9733,-0.48 4.32,-1.49333 v 2.77333 q -2.1333,0.96 -4.2133,1.38666 -2.08,0.42667 -4.8,0.42667 -6.4,0 -9.8134,-3.89333 -3.4133,-3.89333 -3.4133,-10.61333 0,-4.32 1.44,-7.67999 1.4933,-3.36 4.2667,-5.28 2.7733,-1.97333 6.72,-1.97333 z m -0.053,2.56 q -3.8933,0 -6.3466,2.61333 -2.4,2.61333 -2.7734,7.41333 h 17.0134 q 0,-4.48 -1.9734,-7.25333 -1.92,-2.77333 -5.92,-2.77333 z"
             id="path16474" />
          <path
             d="m 1218.9554,343.54207 q 2.08,0 3.84,0.42667 l -0.48,2.82666 q -1.7067,-0.48 -3.52,-0.48 -3.8933,0 -6.1866,2.88 -2.2934,2.88 -2.2934,7.62666 v 15.57333 h -3.04 v -28.37332 h 2.56 l 0.32,5.28 h 0.16 q 1.0667,-2.4 3.2534,-4.05333 2.1866,-1.70667 5.3866,-1.70667 z"
             id="path16471" />
          <path
             d="m 1237.9953,343.48874 q 3.6267,0 6.0267,1.70666 2.4533,1.65334 3.68,4.58667 1.28,2.93333 1.28,6.71999 v 2.08 h -20.2667 q 0,5.65333 2.6134,8.69333 2.6666,2.98666 7.5733,2.98666 2.6133,0 4.5867,-0.42666 1.9733,-0.48 4.32,-1.49333 v 2.77333 q -2.1334,0.96 -4.2134,1.38666 -2.08,0.42667 -4.8,0.42667 -6.4,0 -9.8133,-3.89333 -3.4133,-3.89333 -3.4133,-10.61333 0,-4.32 1.44,-7.67999 1.4933,-3.36 4.2666,-5.28 2.7734,-1.97333 6.72,-1.97333 z m -0.053,2.56 q -3.8933,0 -6.3467,2.61333 -2.4,2.61333 -2.7733,7.41333 h 17.0133 q 0,-4.48 -1.9733,-7.25333 -1.92,-2.77333 -5.92,-2.77333 z"
             id="path16468" />
          <path
             d="m 1269.3552,343.48874 q 4.8534,0 7.4134,2.50666 2.56,2.50667 2.56,7.84 v 18.55999 h -2.9867 v -18.34666 q 0,-4.05333 -1.8667,-5.97333 -1.8666,-1.97333 -5.44,-1.97333 -9.3333,0 -9.3333,10.82666 v 15.46666 h -3.04 v -28.37332 h 2.4533 l 0.4267,4.90666 h 0.2133 q 1.12,-2.34666 3.5734,-3.89333 2.4533,-1.54666 6.0266,-1.54666 z"
             id="path16465" />
          <path
             d="m 1299.8085,372.92872 q -6.24,0 -9.6534,-3.84 -3.36,-3.84 -3.36,-10.71999 0,-4.8 1.7067,-8.10666 1.7067,-3.30667 4.7467,-5.01333 3.0933,-1.76 7.2,-1.76 2.0266,0 3.8399,0.37333 1.8134,0.37333 3.2,1.01333 l -0.8533,2.61333 q -1.44,-0.58666 -3.0933,-0.90666 -1.6534,-0.37333 -3.1467,-0.37333 -5.0666,0 -7.7866,3.25333 -2.6667,3.25333 -2.6667,8.85333 0,5.33333 2.4,8.63999 2.4,3.25333 7.4667,3.25333 2.0799,0 3.9466,-0.42667 1.8667,-0.42666 3.36,-1.06666 v 2.72 q -1.3867,0.69333 -3.2,1.06666 -1.76,0.42667 -4.1066,0.42667 z"
             id="path16462" />
          <path
             d="m 1324.6084,343.48874 q 3.6267,0 6.0267,1.70666 2.4533,1.65334 3.68,4.58667 1.28,2.93333 1.28,6.71999 v 2.08 h -20.2667 q 0,5.65333 2.6134,8.69333 2.6666,2.98666 7.5733,2.98666 2.6133,0 4.5867,-0.42666 1.9733,-0.48 4.32,-1.49333 v 2.77333 q -2.1334,0.96 -4.2134,1.38666 -2.08,0.42667 -4.8,0.42667 -6.4,0 -9.8133,-3.89333 -3.4133,-3.89333 -3.4133,-10.61333 0,-4.32 1.44,-7.67999 1.4933,-3.36 4.2666,-5.28 2.7734,-1.97333 6.72,-1.97333 z m -0.053,2.56 q -3.8933,0 -6.3467,2.61333 -2.4,2.61333 -2.7733,7.41333 h 17.0133 q 0,-4.48 -1.9733,-7.25333 -1.92,-2.77333 -5.92,-2.77333 z"
             id="path16459" />
          <path
             d="m 1361.1417,364.87539 q 0,3.84 -2.88,5.97333 -2.88,2.08 -8.1067,2.08 -2.9867,0 -5.28,-0.53333 -2.2933,-0.48 -3.84,-1.28 v -2.93333 q 1.8667,0.96 4.2667,1.59999 2.4,0.58667 4.9066,0.58667 4.16,0 6.0267,-1.38666 1.92,-1.44 1.92,-3.89334 0,-2.34666 -1.9733,-3.57333 -1.9734,-1.28 -5.8134,-2.61333 -2.6666,-0.90666 -4.6933,-1.81333 -1.9733,-0.96 -3.0933,-2.4 -1.12,-1.44 -1.12,-3.94666 0,-3.41334 2.7733,-5.33333 2.7733,-1.92 7.4133,-1.92 2.56,0 4.7467,0.48 2.24,0.48 4.1067,1.28 l -1.12,2.50666 q -1.6534,-0.69333 -3.7334,-1.17333 -2.08,-0.53333 -4.16,-0.53333 -3.36,0 -5.2266,1.17333 -1.8667,1.17333 -1.8667,3.41333 0,1.70667 0.9067,2.72 0.9066,0.96 2.6133,1.65333 1.7067,0.69333 4.16,1.54667 2.56,0.90666 4.5867,1.86666 2.0266,0.96 3.2533,2.45333 1.2267,1.49334 1.2267,4 z"
             id="path16456" />
        </g>
        <g
           aria-label="By (Holloway) Chew, Kean Ho "
           id="text3331"
           style="font-weight:300;font-size:40px;line-height:1.25;font-family:'Noto Sans';-inkscape-font-specification:'Noto Sans Light'">
          <path
             d="m 976.5063,429.61737 q 5.28,0 7.8,1.68 2.52,1.64 2.52,5.28 0,2.48 -1.44,4.24 -1.4,1.76 -4.12,2.24 v 0.12 q 3.12,0.52 4.76,2.2 1.64,1.68 1.64,4.68 0,2.76 -1.28,4.56 -1.28,1.8 -3.56,2.68 -2.24,0.88 -5.2,0.88 h -9.04 v -28.56 z m 0.52,12.6 q 3.96,0 5.68,-1.36 1.72,-1.36 1.72,-4.04 0,-2.76 -1.88,-3.96 -1.88,-1.2 -6.04,-1.2 h -5.6 v 10.56 z m -6.12,2 v 11.92 h 6.52 q 3.92,0 5.84,-1.56 1.92,-1.6 1.92,-4.64 0,-2.96 -2,-4.32 -2,-1.4 -6.12,-1.4 z"
             id="path8313" />
          <path
             d="m 989.9063,436.89737 h 2.4 l 5.08,13.2 q 0.64,1.8 1.12,3.2 0.48,1.36 0.76,2.44 h 0.12 q 0.6,-2 1.88,-5.56 l 4.96,-13.28 h 2.44 l -9.6,25.04 q -1.08,2.84 -2.56,4.36 -1.48,1.52 -4,1.52 -0.76,0 -1.4,-0.08 -0.6,-0.08 -1.12,-0.28 v -1.92 q 0.48,0.16 1.04,0.24 0.56,0.12 1.2,0.12 1.68,0 2.72,-1.04 1.08,-1.04 1.92,-3.2 l 1.36,-3.56 z"
             id="path8310" />
          <path
             d="m 1020.6662,447.21737 q 0,-5.12 1.48,-9.64 1.48,-4.52 4.36,-7.96 h 2.32 q -2.92,3.64 -4.4,8.16 -1.44,4.52 -1.44,9.4 0,4.8 1.44,9.24 1.48,4.4 4.4,8.08 h -2.32 q -2.88,-3.44 -4.36,-7.84 -1.48,-4.4 -1.48,-9.44 z"
             id="path8307" />
          <path
             d="m 1055.0662,458.17737 h -2.32 v -13.92 h -16.28 v 13.92 h -2.32 v -28.56 h 2.32 v 12.56 h 16.28 v -12.56 h 2.32 z"
             id="path8304" />
          <path
             d="m 1080.4262,447.49737 q 0,3.36 -1.12,5.84 -1.08,2.48 -3.24,3.88 -2.12,1.36 -5.2,1.36 -2.96,0 -5.08,-1.36 -2.12,-1.36 -3.28,-3.84 -1.12,-2.52 -1.12,-5.88 0,-5.16 2.56,-8.08 2.56,-2.92 7.08,-2.92 3.04,0 5.12,1.4 2.12,1.36 3.2,3.84 1.08,2.48 1.08,5.76 z m -16.68,0 q 0,4.12 1.72,6.64 1.76,2.48 5.44,2.48 3.72,0 5.44,-2.52 1.72,-2.52 1.72,-6.6 0,-2.64 -0.72,-4.68 -0.72,-2.04 -2.28,-3.2 -1.56,-1.16 -4.08,-1.16 -3.6,0 -5.44,2.4 -1.8,2.4 -1.8,6.64 z"
             id="path8301" />
          <path
             d="m 1088.5061,458.17737 h -2.28 v -30.4 h 2.28 z"
             id="path8298" />
          <path
             d="m 1097.8261,458.17737 h -2.28 v -30.4 h 2.28 z"
             id="path8295" />
          <path
             d="m 1122.6661,447.49737 q 0,3.36 -1.12,5.84 -1.08,2.48 -3.24,3.88 -2.12,1.36 -5.2,1.36 -2.96,0 -5.08,-1.36 -2.12,-1.36 -3.28,-3.84 -1.12,-2.52 -1.12,-5.88 0,-5.16 2.56,-8.08 2.56,-2.92 7.08,-2.92 3.04,0 5.12,1.4 2.12,1.36 3.2,3.84 1.08,2.48 1.08,5.76 z m -16.68,0 q 0,4.12 1.72,6.64 1.76,2.48 5.44,2.48 3.72,0 5.44,-2.52 1.72,-2.52 1.72,-6.6 0,-2.64 -0.72,-4.68 -0.72,-2.04 -2.28,-3.2 -1.56,-1.16 -4.08,-1.16 -3.6,0 -5.44,2.4 -1.8,2.4 -1.8,6.64 z"
             id="path8292" />
          <path
             d="m 1140.386,444.33737 q -0.44,-1.32 -0.76,-2.52 -0.32,-1.2 -0.56,-2.2 h -0.12 q -0.24,1 -0.56,2.24 -0.32,1.2 -0.76,2.52 l -4.48,13.8 h -2.44 l -6,-21.28 h 2.4 l 3.56,13.12 q 0.48,1.8 0.8,3.16 0.32,1.32 0.52,2.36 h 0.12 q 0.2,-0.96 0.52,-2.28 0.36,-1.32 0.88,-2.92 l 4.4,-13.44 h 2.32 l 4.24,13.44 q 0.44,1.44 0.8,2.8 0.4,1.36 0.6,2.36 h 0.12 q 0.12,-0.96 0.44,-2.32 0.32,-1.36 0.8,-3.16 l 3.48,-13.12 h 2.32 l -5.8,21.28 h -2.48 z"
             id="path8289" />
          <path
             d="m 1164.6259,436.53737 q 3.6,0 5.36,1.76 1.76,1.76 1.76,5.56 v 14.32 h -1.72 l -0.4,-3.6 h -0.12 q -1.16,1.8 -2.84,2.92 -1.64,1.08 -4.6,1.08 -3.08,0 -4.84,-1.52 -1.76,-1.56 -1.76,-4.44 0,-3.2 2.6,-4.84 2.6,-1.68 7.56,-1.88 l 3.88,-0.2 v -1.48 q 0,-3.12 -1.28,-4.44 -1.24,-1.32 -3.68,-1.32 -1.64,0 -3.16,0.44 -1.52,0.44 -3.04,1.16 l -0.72,-1.84 q 1.52,-0.72 3.28,-1.2 1.8,-0.48 3.72,-0.48 z m 1.28,11.04 q -4.08,0.2 -6.08,1.44 -1.96,1.2 -1.96,3.6 0,2 1.2,3.04 1.24,1 3.4,1 3.32,0 5.16,-1.88 1.84,-1.92 1.88,-5.28 v -2.08 z"
             id="path8286" />
          <path
             d="m 1175.0659,436.89737 h 2.4 l 5.08,13.2 q 0.64,1.8 1.12,3.2 0.48,1.36 0.76,2.44 h 0.12 q 0.6,-2 1.88,-5.56 l 4.96,-13.28 h 2.44 l -9.6,25.04 q -1.08,2.84 -2.56,4.36 -1.48,1.52 -4,1.52 -0.76,0 -1.4,-0.08 -0.6,-0.08 -1.12,-0.28 v -1.92 q 0.48,0.16 1.04,0.24 0.56,0.12 1.2,0.12 1.68,0 2.72,-1.04 1.08,-1.04 1.92,-3.2 l 1.36,-3.56 z"
             id="path8283" />
          <path
             d="m 1203.2659,447.05737 q 0,5.08 -1.48,9.6 -1.48,4.48 -4.36,7.84 h -2.28 q 2.92,-3.64 4.36,-8.12 1.44,-4.48 1.44,-9.32 0,-4.88 -1.48,-9.32 -1.44,-4.48 -4.36,-8.12 h 2.32 q 2.88,3.48 4.36,7.92 1.48,4.44 1.48,9.52 z"
             id="path8280" />
          <path
             d="m 1231.4658,431.29737 q -3.52,0 -6.04,1.6 -2.52,1.56 -3.88,4.4 -1.32,2.8 -1.32,6.52 0,3.84 1.2,6.72 1.2,2.84 3.6,4.4 2.44,1.56 6.04,1.56 2.08,0 3.8,-0.32 1.76,-0.32 3.32,-0.84 v 2.04 q -1.48,0.56 -3.24,0.88 -1.76,0.32 -4.12,0.32 -4.32,0 -7.24,-1.84 -2.88,-1.84 -4.36,-5.16 -1.44,-3.32 -1.44,-7.76 0,-4.24 1.6,-7.52 1.64,-3.32 4.68,-5.2 3.08,-1.88 7.44,-1.88 4.16,0 7.48,1.56 l -0.92,2.04 q -3.08,-1.52 -6.6,-1.52 z"
             id="path8277" />
          <path
             d="m 1246.0258,437.49737 q 0,0.84 -0.04,1.6 -0.04,0.76 -0.12,1.48 h 0.16 q 0.84,-1.76 2.64,-2.92 1.84,-1.16 4.56,-1.16 3.68,0 5.6,1.88 1.92,1.88 1.92,5.88 v 13.92 h -2.24 v -13.76 q 0,-3.04 -1.4,-4.48 -1.4,-1.48 -4.08,-1.48 -7,0 -7,8.12 v 11.6 h -2.28 v -30.4 h 2.28 z"
             id="path8274" />
          <path
             d="m 1275.6657,436.49737 q 2.72,0 4.52,1.28 1.84,1.24 2.76,3.44 0.96,2.2 0.96,5.04 v 1.56 h -15.2 q 0,4.24 1.96,6.52 2,2.24 5.68,2.24 1.96,0 3.44,-0.32 1.48,-0.36 3.24,-1.12 v 2.08 q -1.6,0.72 -3.16,1.04 -1.56,0.32 -3.6,0.32 -4.8,0 -7.36,-2.92 -2.56,-2.92 -2.56,-7.96 0,-3.24 1.08,-5.76 1.12,-2.52 3.2,-3.96 2.08,-1.48 5.04,-1.48 z m -0.04,1.92 q -2.92,0 -4.76,1.96 -1.8,1.96 -2.08,5.56 h 12.76 q 0,-3.36 -1.48,-5.44 -1.44,-2.08 -4.44,-2.08 z"
             id="path8271" />
          <path
             d="m 1301.5856,444.33737 q -0.44,-1.32 -0.76,-2.52 -0.32,-1.2 -0.56,-2.2 h -0.12 q -0.24,1 -0.56,2.24 -0.32,1.2 -0.76,2.52 l -4.48,13.8 h -2.44 l -6,-21.28 h 2.4 l 3.56,13.12 q 0.48,1.8 0.8,3.16 0.32,1.32 0.52,2.36 h 0.12 q 0.2,-0.96 0.52,-2.28 0.36,-1.32 0.88,-2.92 l 4.4,-13.44 h 2.32 l 4.24,13.44 q 0.44,1.44 0.8,2.8 0.4,1.36 0.6,2.36 h 0.12 q 0.12,-0.96 0.44,-2.32 0.32,-1.36 0.8,-3.16 l 3.48,-13.12 h 2.32 l -5.8,21.28 h -2.48 z"
             id="path8268" />
          <path
             d="m 1319.5455,453.97737 q -0.52,2.2 -1.32,4.72 -0.8,2.52 -1.72,4.64 h -1.72 q 1.44,-5.32 2.12,-9.8 h 2.44 z"
             id="path8265" />
          <path
             d="m 1356.1855,458.17737 h -2.8 l -10.88,-14.8 -3.56,3.4 v 11.4 h -2.32 v -28.56 h 2.32 v 14.84 q 0.84,-0.92 1.68,-1.84 0.88,-0.96 1.8,-1.92 l 10.56,-11.08 h 2.84 l -11.6,12.16 z"
             id="path8262" />
          <path
             d="m 1367.7854,436.49737 q 2.72,0 4.52,1.28 1.84,1.24 2.76,3.44 0.96,2.2 0.96,5.04 v 1.56 h -15.2 q 0,4.24 1.96,6.52 2,2.24 5.68,2.24 1.96,0 3.44,-0.32 1.48,-0.36 3.24,-1.12 v 2.08 q -1.6,0.72 -3.16,1.04 -1.56,0.32 -3.6,0.32 -4.8,0 -7.36,-2.92 -2.56,-2.92 -2.56,-7.96 0,-3.24 1.08,-5.76 1.12,-2.52 3.2,-3.96 2.08,-1.48 5.04,-1.48 z m -0.04,1.92 q -2.92,0 -4.76,1.96 -1.8,1.96 -2.08,5.56 h 12.76 q 0,-3.36 -1.48,-5.44 -1.44,-2.08 -4.44,-2.08 z"
             id="path8259" />
          <path
             d="m 1389.3054,436.53737 q 3.6,0 5.36,1.76 1.76,1.76 1.76,5.56 v 14.32 h -1.72 l -0.4,-3.6 h -0.12 q -1.16,1.8 -2.84,2.92 -1.64,1.08 -4.6,1.08 -3.08,0 -4.84,-1.52 -1.76,-1.56 -1.76,-4.44 0,-3.2 2.6,-4.84 2.6,-1.68 7.56,-1.88 l 3.88,-0.2 v -1.48 q 0,-3.12 -1.28,-4.44 -1.24,-1.32 -3.68,-1.32 -1.64,0 -3.16,0.44 -1.52,0.44 -3.04,1.16 l -0.72,-1.84 q 1.52,-0.72 3.28,-1.2 1.8,-0.48 3.72,-0.48 z m 1.28,11.04 q -4.08,0.2 -6.08,1.44 -1.96,1.2 -1.96,3.6 0,2 1.2,3.04 1.24,1 3.4,1 3.32,0 5.16,-1.88 1.84,-1.92 1.88,-5.28 v -2.08 z"
             id="path8256" />
          <path
             d="m 1412.7453,436.49737 q 3.64,0 5.56,1.88 1.92,1.88 1.92,5.88 v 13.92 h -2.24 v -13.76 q 0,-3.04 -1.4,-4.48 -1.4,-1.48 -4.08,-1.48 -7,0 -7,8.12 v 11.6 h -2.28 v -21.28 h 1.84 l 0.32,3.68 h 0.16 q 0.84,-1.76 2.68,-2.92 1.84,-1.16 4.52,-1.16 z"
             id="path8253" />
          <path
             d="m 1458.8652,458.17737 h -2.32 v -13.92 h -16.28 v 13.92 h -2.32 v -28.56 h 2.32 v 12.56 h 16.28 v -12.56 h 2.32 z"
             id="path8250" />
          <path
             d="m 1484.2252,447.49737 q 0,3.36 -1.12,5.84 -1.08,2.48 -3.24,3.88 -2.12,1.36 -5.2,1.36 -2.96,0 -5.08,-1.36 -2.12,-1.36 -3.28,-3.84 -1.12,-2.52 -1.12,-5.88 0,-5.16 2.56,-8.08 2.56,-2.92 7.08,-2.92 3.04,0 5.12,1.4 2.12,1.36 3.2,3.84 1.08,2.48 1.08,5.76 z m -16.68,0 q 0,4.12 1.72,6.64 1.76,2.48 5.44,2.48 3.72,0 5.44,-2.52 1.72,-2.52 1.72,-6.6 0,-2.64 -0.72,-4.68 -0.72,-2.04 -2.28,-3.2 -1.56,-1.16 -4.08,-1.16 -3.6,0 -5.44,2.4 -1.8,2.4 -1.8,6.64 z"
             id="path8247" />
        </g>
      </g>
    </g>
  </g>
</svg>
