<svg width="1200" height="628" version="1.1" viewBox="0 0 1200 628" xmlns="http://www.w3.org/2000/svg">
<defs>
<style>.cls-1{fill:#ea4335;}.cls-2{fill:#4285f4;}.cls-3{fill:#34a853;}.cls-4{fill:#fbbc05;}.cls-5{fill:#5f6368;}</style>
</defs>
<g transform="translate(-421.78 -4.9288)">
<rect x="421.78" y="4.9288" width="1200" height="628" rx="15" ry="15" style="fill:#f2f2f2;opacity:.99;stroke-linecap:round;stroke-linejoin:round"/>
<g transform="matrix(.78618 0 0 .78618 175.81 219.68)">
<g transform="matrix(2.3438,0,0,2.3438,361.2,-114.94)">
<path d="m170.25 56.819 22.253-22.253 1.483-9.37c-40.551-36.873-105.01-32.692-141.57 8.724-10.154 11.503-17.687 25.844-21.704 40.653l7.97-1.123 44.505-7.339 3.436-3.514c19.797-21.742 53.27-24.667 76.128-6.168z" fill="#ea4335"/>
<path d="m224.2 73.918c-5.115-18.836-15.616-35.769-30.217-48.722l-31.232 31.232c13.188 10.776 20.701 27.01 20.379 44.037v5.544c15.351 0 27.797 12.445 27.797 27.796 0 15.352-12.446 27.485-27.797 27.485h-55.671l-5.466 5.934v33.34l5.466 5.231h55.671c39.93 0.311 72.552-31.494 72.863-71.424 0.188-24.203-11.745-46.893-31.793-60.453" fill="#4285f4"/>
<path d="m71.87 205.8h55.593v-44.506h-55.593c-3.961-1e-3 -7.797-0.852-11.399-2.498l-7.887 2.42-22.409 22.253-1.952 7.574c12.567 9.489 27.9 14.825 43.647 14.757" fill="#34a853"/>
<path d="m71.87 61.426c-39.931 0.238-72.107 32.802-71.869 72.732 0.133 22.298 10.547 43.288 28.222 56.881l32.248-32.247c-13.991-6.321-20.208-22.786-13.887-36.776 6.32-13.99 22.786-20.207 36.775-13.887 6.165 2.785 11.102 7.723 13.887 13.887l32.248-32.247c-13.721-17.937-35.041-28.424-57.624-28.343" fill="#fbbc05"/>
</g>
</g>
<g transform="translate(0 -47.444)">
<g aria-label="Google Cloud Platform Shell References">
<path d="m985.41 284.34h15.093v19.733q-2.9867 1.0133-6.24 1.6-3.2 0.58666-7.3067 0.58666-8.5333 0-13.12-5.0133-4.5867-5.0133-4.5867-14.613 0-5.9733 2.2933-10.347 2.3467-4.3733 6.7733-6.7733 4.4267-2.4 10.827-2.4 3.04 0 5.9733 0.64t5.3334 1.7067l-2.6667 6.4533q-1.76-0.90666-4-1.4933-2.24-0.58666-4.6933-0.58666-3.52 0-6.1333 1.6-2.56 1.6-4 4.5333-1.3867 2.88-1.3867 6.8267 0 3.7333 1.0133 6.6133t3.2 4.5333q2.1867 1.6 5.7067 1.6 1.7067 0 2.88-0.16 1.2267-0.16 2.24-0.37334v-7.9467h-7.2z"/>
<path d="m1035.4 291.12q0 7.2533-3.84 11.2-3.7866 3.9467-10.347 3.9467-4.0534 0-7.2534-1.76-3.1466-1.76-4.96-5.12-1.8133-3.4133-1.8133-8.2667 0-7.2533 3.7867-11.147 3.7866-3.8933 10.4-3.8933 4.1066 0 7.2533 1.76t4.96 5.12q1.8133 3.3067 1.8133 8.16zm-20.107 0q0 4.32 1.3866 6.56 1.44 2.1867 4.64 2.1867 3.1467 0 4.5334-2.1867 1.44-2.24 1.44-6.56 0-4.32-1.44-6.4533-1.3867-2.1867-4.5867-2.1867-3.1467 0-4.5867 2.1867-1.3866 2.1333-1.3866 6.4533z"/>
<path d="m1068.4 291.12q0 7.2533-3.84 11.2-3.7867 3.9467-10.347 3.9467-4.0533 0-7.2533-1.76-3.1466-1.76-4.96-5.12-1.8133-3.4133-1.8133-8.2667 0-7.2533 3.7867-11.147 3.7866-3.8933 10.4-3.8933 4.1067 0 7.2534 1.76 3.1466 1.76 4.96 5.12 1.8133 3.3067 1.8133 8.16zm-20.107 0q0 4.32 1.3866 6.56 1.44 2.1867 4.64 2.1867 3.1467 0 4.5333-2.1867 1.44-2.24 1.44-6.56 0-4.32-1.44-6.4533-1.3866-2.1867-4.5866-2.1867-3.1467 0-4.5867 2.1867-1.3866 2.1333-1.3866 6.4533z"/>
<path d="m1084.4 276.08q5.3866 0 8.4266 4.2667h0.2134l0.64-3.7333h6.72v29.173q0 6.24-3.68 9.4933t-10.88 3.2533q-3.0934 0-5.76-0.37333-2.6134-0.37333-5.12-1.3333v-6.3467q5.3866 2.24 11.36 2.24 6.1333 0 6.1333-6.6133v-0.58666q0-0.90667 0.053-1.8667 0.1067-0.96 0.16-1.7067h-0.2133q-1.4933 2.2933-3.5733 3.3067t-4.6934 1.0133q-5.1733 0-8.1066-3.9467-2.88-4-2.88-11.093 0-7.1467 2.9866-11.147 2.9867-4 8.2134-4zm2.5066 6.4533q-5.6 0-5.6 8.8 0 8.6933 5.7067 8.6933 3.04 0 4.48-1.7067 1.4933-1.76 1.4933-6.08v-0.95999q0-4.6933-1.44-6.72-1.44-2.0267-4.64-2.0267z"/>
<path d="m1116.7 305.73h-7.9467v-40.533h7.9467z"/>
<path d="m1137 276.08q6.0267 0 9.5467 3.4667 3.52 3.4133 3.52 9.76v3.84h-18.773q0.1067 3.36 1.9734 5.28 1.92 1.92 5.28 1.92 2.8266 0 5.12-0.53334 2.2933-0.58666 4.7466-1.76v6.1333q-2.1333 1.0667-4.5333 1.5467-2.3467 0.53333-5.7067 0.53333-4.3733 0-7.7333-1.6-3.36-1.6533-5.28-4.96-1.92-3.3067-1.92-8.32 0-5.12 1.7067-8.48 1.76-3.4133 4.8533-5.12t7.2-1.7067zm0.053 5.6533q-2.2933 0-3.84 1.4933-1.4933 1.4933-1.76 4.64h11.147q-0.053-2.6667-1.3867-4.3733-1.3333-1.76-4.16-1.76z"/>
<path d="m1187.2 273.84q-4.64 0-7.0933 3.4667t-2.4533 9.4933q0 6.08 2.24 9.44 2.2933 3.3067 7.3066 3.3067 2.3467 0 4.64-0.53334 2.3467-0.53333 5.0667-1.4933v6.7733q-2.5067 1.0133-4.96 1.4933t-5.4933 0.48q-5.8667 0-9.7067-2.4-3.7867-2.4533-5.6-6.8267-1.8133-4.4267-1.8133-10.293 0-5.76 2.08-10.187 2.08-4.4267 6.0266-6.9333 4-2.5067 9.76-2.5067 2.8267 0 5.6534 0.74667 2.88 0.69333 5.4933 1.92l-2.6133 6.56q-2.1334-1.0133-4.32-1.76-2.1334-0.74666-4.2134-0.74666z"/>
<path d="m1212.3 305.73h-7.9467v-40.533h7.9467z"/>
<path d="m1247.1 291.12q0 7.2533-3.84 11.2-3.7867 3.9467-10.347 3.9467-4.0533 0-7.2533-1.76-3.1467-1.76-4.96-5.12-1.8133-3.4133-1.8133-8.2667 0-7.2533 3.7866-11.147 3.7867-3.8933 10.4-3.8933 4.1067 0 7.2534 1.76 3.1466 1.76 4.96 5.12 1.8133 3.3067 1.8133 8.16zm-20.107 0q0 4.32 1.3867 6.56 1.44 2.1867 4.64 2.1867 3.1467 0 4.5333-2.1867 1.44-2.24 1.44-6.56 0-4.32-1.44-6.4533-1.3866-2.1867-4.5866-2.1867-3.1467 0-4.5867 2.1867-1.3867 2.1333-1.3867 6.4533z"/>
<path d="m1280.3 276.61v29.12h-6.08l-1.0666-3.7333h-0.4267q-1.3867 2.24-3.84 3.2533-2.4 1.0133-5.12 1.0133-4.6933 0-7.52-2.5067-2.8267-2.56-2.8267-8.16v-18.987h7.9467v17.013q0 3.0933 1.12 4.6933t3.5733 1.6q3.6267 0 4.96-2.4533 1.3334-2.5067 1.3334-7.1467v-13.707z"/>
<path d="m1297.9 306.26q-4.8533 0-7.9467-3.7867-3.04-3.84-3.04-11.253 0-7.4667 3.0934-11.307 3.0933-3.84 8.1066-3.84 3.1467 0 5.1733 1.2267 2.0267 1.2267 3.2 3.04h0.2667q-0.16-0.85333-0.3733-2.4533-0.2134-1.6533-0.2134-3.36v-9.3333h7.9467v40.533h-6.08l-1.5467-3.7867h-0.32q-1.1733 1.8133-3.1466 3.0933-1.9733 1.2267-5.12 1.2267zm2.7733-6.3467q3.3067 0 4.64-1.92 1.3333-1.9733 1.3867-5.8667v-0.85333q0-4.2667-1.3334-6.5067-1.28-2.24-4.7999-2.24-2.6134 0-4.1067 2.2933-1.4933 2.24-1.4933 6.5067 0 4.2667 1.4933 6.4533 1.4933 2.1333 4.2133 2.1333z"/>
<path d="m1349.1 267.65q7.36 0 10.72 3.2 3.4133 3.1467 3.4133 8.6933 0 3.3067-1.3866 6.24-1.3867 2.88-4.64 4.64-3.2 1.76-8.7467 1.76h-3.4667v13.547h-8.0533v-38.08zm-0.4267 6.6133h-3.68v11.307h2.6667q3.4133 0 5.3867-1.3333 2.0266-1.3867 2.0266-4.4267 0-5.5467-6.4-5.5467z"/>
<path d="m1377.7 305.73h-7.9467v-40.533h7.9467z"/>
<path d="m1398 276.02q5.8666 0 8.96 2.56 3.1466 2.5067 3.1466 7.7333v19.413h-5.5466l-1.5467-3.9467h-0.2133q-1.8667 2.3467-3.9467 3.4133-2.08 1.0667-5.7067 1.0667-3.8933 0-6.4533-2.24-2.56-2.2933-2.56-6.9867 0-4.64 3.2533-6.8267 3.2534-2.24 9.76-2.4533l5.0667-0.16v-1.28q0-2.2933-1.2267-3.36-1.1733-1.0667-3.3066-1.0667-2.1334 0-4.16 0.64-2.0267 0.58667-4.0534 1.4933l-2.6133-5.3867q2.3467-1.2267 5.1733-1.92 2.88-0.69333 5.9734-0.69333zm1.12 16.32q-3.84 0.10667-5.3334 1.3867-1.4933 1.28-1.4933 3.36 0 1.8133 1.0667 2.6133 1.0666 0.74666 2.7733 0.74666 2.56 0 4.32-1.4933 1.76-1.5467 1.76-4.32v-2.4z"/>
<path d="m1430.5 299.92q1.3333 0 2.56-0.26667 1.2267-0.26666 2.4533-0.64v5.92q-1.28 0.53333-3.2 0.90667-1.8666 0.42666-4.1066 0.42666-2.6134 0-4.6934-0.85333-2.0266-0.85333-3.2533-2.9333-1.1733-2.1333-1.1733-5.8667v-14.027h-3.7867v-3.36l4.3733-2.6667 2.2934-6.1333h5.0666v6.1867h8.16v5.9733h-8.16v14.027q0 1.6533 0.96 2.5067 0.96 0.8 2.5067 0.8z"/>
<path d="m1457.5 282.58h-6.88v23.147h-7.9466v-23.147h-4.3733v-3.84l4.3733-2.1333v-2.1333q0-3.7333 1.2267-5.76 1.28-2.08 3.5733-2.9333 2.3467-0.85334 5.4933-0.85334 2.3467 0 4.2133 0.37334 1.92 0.37333 3.0934 0.85333l-2.0267 5.8133q-0.9067-0.26667-1.9733-0.48-1.0667-0.26667-2.4534-0.26667-1.6533 0-2.4533 1.0133-0.7467 1.0133-0.7467 2.56v1.8133h6.88z"/>
<path d="m1488.5 291.12q0 7.2533-3.84 11.2-3.7867 3.9467-10.347 3.9467-4.0533 0-7.2533-1.76-3.1467-1.76-4.96-5.12-1.8134-3.4133-1.8134-8.2667 0-7.2533 3.7867-11.147 3.7867-3.8933 10.4-3.8933 4.1067 0 7.2533 1.76 3.1467 1.76 4.96 5.12 1.8134 3.3067 1.8134 8.16zm-20.107 0q0 4.32 1.3867 6.56 1.44 2.1867 4.64 2.1867 3.1466 0 4.5333-2.1867 1.44-2.24 1.44-6.56 0-4.32-1.44-6.4533-1.3867-2.1867-4.5867-2.1867-3.1466 0-4.5866 2.1867-1.3867 2.1333-1.3867 6.4533z"/>
<path d="m1511.3 276.08q0.5867 0 1.3867 0.0533t1.28 0.16l-0.5867 7.4667q-0.3733-0.10667-1.12-0.16-0.6933-0.10667-1.2267-0.10667-2.0266 0-3.8933 0.74667-1.8667 0.69333-3.04 2.2933-1.12 1.6-1.12 4.3733v14.827h-7.9467v-29.12h6.0267l1.1733 4.9067h0.3734q1.28-2.24 3.52-3.84t5.1733-1.6z"/>
<path d="m1553.5 276.08q4.96 0 7.4667 2.56 2.56 2.5067 2.56 8.1067v18.987h-7.9467v-17.013q0-6.2933-4.3733-6.2933-3.1467 0-4.48 2.24-1.3334 2.24-1.3334 6.4533v14.613h-7.9466v-17.013q0-6.2933-4.3734-6.2933-3.3066 0-4.5866 2.5067-1.2267 2.4533-1.2267 7.0933v13.707h-7.9467v-29.12h6.08l1.0667 3.7333h0.4267q1.3333-2.24 3.6266-3.2533 2.3467-1.0133 4.8534-1.0133 3.2 0 5.44 1.0667 2.24 1.0133 3.4133 3.2h0.6933q1.3334-2.24 3.68-3.2533 2.4-1.0133 4.9067-1.0133z"/>
<path d="m992.61 362.48q0 3.4133-1.7067 5.76-1.7067 2.3467-4.6933 3.52-2.9867 1.1733-6.7733 1.1733-3.4667 0-6.0267-0.48t-4.3733-1.2267v-3.04q1.9733 0.8 4.6933 1.3867 2.72 0.58667 5.8667 0.58667 4.3733 0 7.0933-1.8667 2.7733-1.8667 2.7733-5.6 0-2.24-1.0667-3.68-1.0133-1.4933-3.2-2.56-2.1333-1.12-5.4933-2.24-3.2-1.0667-5.4933-2.4t-3.52-3.3067q-1.2267-2.0267-1.2267-5.0667 0-3.0933 1.5467-5.2267 1.6-2.1867 4.32-3.3067 2.7733-1.12 6.2933-1.12 2.7733 0 5.28 0.53333 2.5067 0.53333 4.7467 1.4933l-1.0133 2.6667q-4.5867-1.92-9.12-1.92-3.9467 0-6.4533 1.76-2.4533 1.7067-2.4533 5.0667 0 2.4533 1.0667 3.9467 1.0667 1.44 3.0933 2.4533 2.0267 1.0133 4.96 2.0267 3.36 1.1733 5.76 2.4533 2.4533 1.28 3.7867 3.2533 1.3333 1.92 1.3333 4.96z"/>
<path d="m1003 344.82q0 1.12-0.053 2.1333t-0.16 1.9733h0.2133q1.12-2.3467 3.52-3.8933 2.4534-1.5467 6.08-1.5467 4.9067 0 7.4667 2.5067 2.56 2.5067 2.56 7.84v18.56h-2.9867v-18.347q0-4.0533-1.8666-5.9733-1.8667-1.9733-5.44-1.9733-9.3334 0-9.3334 10.827v15.467h-3.04v-40.533h3.04z"/>
<path d="m1042.5 343.49q3.6267 0 6.0267 1.7067 2.4533 1.6533 3.68 4.5867 1.28 2.9333 1.28 6.72v2.08h-20.267q0 5.6533 2.6133 8.6933 2.6666 2.9867 7.5733 2.9867 2.6133 0 4.5867-0.42666 1.9733-0.48 4.32-1.4933v2.7733q-2.1334 0.96-4.2134 1.3867-2.08 0.42667-4.8 0.42667-6.3999 0-9.8133-3.8933-3.4133-3.8933-3.4133-10.613 0-4.32 1.44-7.68 1.4933-3.36 4.2667-5.28 2.7733-1.9733 6.7199-1.9733zm-0.053 2.56q-3.8933 0-6.3466 2.6133-2.4 2.6133-2.7734 7.4133h17.013q0-4.48-1.9733-7.2533-1.92-2.7733-5.92-2.7733z"/>
<path d="m1064.2 372.4h-3.04v-40.533h3.04z"/>
<path d="m1076.7 372.4h-3.04v-40.533h3.04z"/>
<path d="m1110 334.32q6.8267 0 10.24 2.4 3.4667 2.3467 3.4667 8.0533 0 4.3733-2.3467 6.88-2.2933 2.4533-5.76 3.4667l10.453 17.28h-3.68l-9.7066-16.427h-9.0667v16.427h-3.0933v-38.08zm-0.2667 2.72h-6.1333v16.267h7.2q4.64 0 7.1467-2.1333 2.56-2.1867 2.56-6.2933 0-4.3733-2.6667-6.08-2.6667-1.76-8.1067-1.76z"/>
<path d="m1142.7 343.49q3.6267 0 6.0267 1.7067 2.4533 1.6533 3.68 4.5867 1.28 2.9333 1.28 6.72v2.08h-20.267q0 5.6533 2.6133 8.6933 2.6667 2.9867 7.5734 2.9867 2.6133 0 4.5866-0.42666 1.9734-0.48 4.32-1.4933v2.7733q-2.1333 0.96-4.2133 1.3867-2.08 0.42667-4.8 0.42667-6.4 0-9.8133-3.8933-3.4134-3.8933-3.4134-10.613 0-4.32 1.44-7.68 1.4934-3.36 4.2667-5.28 2.7733-1.9733 6.72-1.9733zm-0.053 2.56q-3.8934 0-6.3467 2.6133-2.4 2.6133-2.7733 7.4133h17.013q0-4.48-1.9733-7.2533-1.92-2.7733-5.92-2.7733z"/>
<path d="m1172.4 346.48h-6.7733v25.92h-3.04v-25.92h-5.2266v-1.6533l5.2266-0.90667v-2.8267q0-9.4933 8.48-9.4933 1.4933 0 2.72 0.26667 1.2267 0.21333 2.24 0.53333l-0.6933 2.5067q-0.96-0.32-2.08-0.53334-1.0667-0.21333-2.1334-0.21333-2.88 0-4.2133 1.6533-1.28 1.6533-1.28 5.28v2.9333h6.7733z"/>
<path d="m1188.6 343.49q3.6266 0 6.0266 1.7067 2.4534 1.6533 3.68 4.5867 1.28 2.9333 1.28 6.72v2.08h-20.267q0 5.6533 2.6133 8.6933 2.6667 2.9867 7.5733 2.9867 2.6134 0 4.5867-0.42666 1.9733-0.48 4.32-1.4933v2.7733q-2.1333 0.96-4.2133 1.3867-2.08 0.42667-4.8 0.42667-6.4 0-9.8134-3.8933-3.4133-3.8933-3.4133-10.613 0-4.32 1.44-7.68 1.4933-3.36 4.2667-5.28 2.7733-1.9733 6.72-1.9733zm-0.053 2.56q-3.8933 0-6.3466 2.6133-2.4 2.6133-2.7734 7.4133h17.013q0-4.48-1.9734-7.2533-1.92-2.7733-5.92-2.7733z"/>
<path d="m1219 343.54q2.08 0 3.84 0.42667l-0.48 2.8267q-1.7067-0.48-3.52-0.48-3.8933 0-6.1866 2.88-2.2934 2.88-2.2934 7.6267v15.573h-3.04v-28.373h2.56l0.32 5.28h0.16q1.0667-2.4 3.2534-4.0533 2.1866-1.7067 5.3866-1.7067z"/>
<path d="m1238 343.49q3.6267 0 6.0267 1.7067 2.4533 1.6533 3.68 4.5867 1.28 2.9333 1.28 6.72v2.08h-20.267q0 5.6533 2.6134 8.6933 2.6666 2.9867 7.5733 2.9867 2.6133 0 4.5867-0.42666 1.9733-0.48 4.32-1.4933v2.7733q-2.1334 0.96-4.2134 1.3867-2.08 0.42667-4.8 0.42667-6.4 0-9.8133-3.8933t-3.4133-10.613q0-4.32 1.44-7.68 1.4933-3.36 4.2666-5.28 2.7734-1.9733 6.72-1.9733zm-0.053 2.56q-3.8933 0-6.3467 2.6133-2.4 2.6133-2.7733 7.4133h17.013q0-4.48-1.9733-7.2533-1.92-2.7733-5.92-2.7733z"/>
<path d="m1269.4 343.49q4.8534 0 7.4134 2.5067 2.56 2.5067 2.56 7.84v18.56h-2.9867v-18.347q0-4.0533-1.8667-5.9733-1.8666-1.9733-5.44-1.9733-9.3333 0-9.3333 10.827v15.467h-3.04v-28.373h2.4533l0.4267 4.9067h0.2133q1.12-2.3467 3.5734-3.8933 2.4533-1.5467 6.0266-1.5467z"/>
<path d="m1299.8 372.93q-6.24 0-9.6534-3.84-3.36-3.84-3.36-10.72 0-4.8 1.7067-8.1067 1.7067-3.3067 4.7467-5.0133 3.0933-1.76 7.2-1.76 2.0266 0 3.8399 0.37333 1.8134 0.37333 3.2 1.0133l-0.8533 2.6133q-1.44-0.58666-3.0933-0.90666-1.6534-0.37333-3.1467-0.37333-5.0666 0-7.7866 3.2533-2.6667 3.2533-2.6667 8.8533 0 5.3333 2.4 8.64 2.4 3.2533 7.4667 3.2533 2.0799 0 3.9466-0.42667 1.8667-0.42666 3.36-1.0667v2.72q-1.3867 0.69333-3.2 1.0667-1.76 0.42667-4.1066 0.42667z"/>
<path d="m1324.6 343.49q3.6267 0 6.0267 1.7067 2.4533 1.6533 3.68 4.5867 1.28 2.9333 1.28 6.72v2.08h-20.267q0 5.6533 2.6134 8.6933 2.6666 2.9867 7.5733 2.9867 2.6133 0 4.5867-0.42666 1.9733-0.48 4.32-1.4933v2.7733q-2.1334 0.96-4.2134 1.3867-2.08 0.42667-4.8 0.42667-6.4 0-9.8133-3.8933t-3.4133-10.613q0-4.32 1.44-7.68 1.4933-3.36 4.2666-5.28 2.7734-1.9733 6.72-1.9733zm-0.053 2.56q-3.8933 0-6.3467 2.6133-2.4 2.6133-2.7733 7.4133h17.013q0-4.48-1.9733-7.2533-1.92-2.7733-5.92-2.7733z"/>
<path d="m1361.1 364.88q0 3.84-2.88 5.9733-2.88 2.08-8.1067 2.08-2.9867 0-5.28-0.53333-2.2933-0.48-3.84-1.28v-2.9333q1.8667 0.96 4.2667 1.6 2.4 0.58667 4.9066 0.58667 4.16 0 6.0267-1.3867 1.92-1.44 1.92-3.8933 0-2.3467-1.9733-3.5733-1.9734-1.28-5.8134-2.6133-2.6666-0.90666-4.6933-1.8133-1.9733-0.96-3.0933-2.4t-1.12-3.9467q0-3.4133 2.7733-5.3333 2.7733-1.92 7.4133-1.92 2.56 0 4.7467 0.48 2.24 0.48 4.1067 1.28l-1.12 2.5067q-1.6534-0.69333-3.7334-1.1733-2.08-0.53333-4.16-0.53333-3.36 0-5.2266 1.1733-1.8667 1.1733-1.8667 3.4133 0 1.7067 0.9067 2.72 0.9066 0.96 2.6133 1.6533t4.16 1.5467q2.56 0.90666 4.5867 1.8667 2.0266 0.96 3.2533 2.4533 1.2267 1.4933 1.2267 4z"/>
</g>
<g aria-label="By (Holloway) Chew, Kean Ho ">
<path d="m976.51 429.62q5.28 0 7.8 1.68 2.52 1.64 2.52 5.28 0 2.48-1.44 4.24-1.4 1.76-4.12 2.24v0.12q3.12 0.52 4.76 2.2t1.64 4.68q0 2.76-1.28 4.56t-3.56 2.68q-2.24 0.88-5.2 0.88h-9.04v-28.56zm0.52 12.6q3.96 0 5.68-1.36t1.72-4.04q0-2.76-1.88-3.96t-6.04-1.2h-5.6v10.56zm-6.12 2v11.92h6.52q3.92 0 5.84-1.56 1.92-1.6 1.92-4.64 0-2.96-2-4.32-2-1.4-6.12-1.4z"/>
<path d="m989.91 436.9h2.4l5.08 13.2q0.64 1.8 1.12 3.2 0.48 1.36 0.76 2.44h0.12q0.6-2 1.88-5.56l4.96-13.28h2.44l-9.6 25.04q-1.08 2.84-2.56 4.36t-4 1.52q-0.76 0-1.4-0.08-0.6-0.08-1.12-0.28v-1.92q0.48 0.16 1.04 0.24 0.56 0.12 1.2 0.12 1.68 0 2.72-1.04 1.08-1.04 1.92-3.2l1.36-3.56z"/>
<path d="m1020.7 447.22q0-5.12 1.48-9.64t4.36-7.96h2.32q-2.92 3.64-4.4 8.16-1.44 4.52-1.44 9.4 0 4.8 1.44 9.24 1.48 4.4 4.4 8.08h-2.32q-2.88-3.44-4.36-7.84t-1.48-9.44z"/>
<path d="m1055.1 458.18h-2.32v-13.92h-16.28v13.92h-2.32v-28.56h2.32v12.56h16.28v-12.56h2.32z"/>
<path d="m1080.4 447.5q0 3.36-1.12 5.84-1.08 2.48-3.24 3.88-2.12 1.36-5.2 1.36-2.96 0-5.08-1.36t-3.28-3.84q-1.12-2.52-1.12-5.88 0-5.16 2.56-8.08t7.08-2.92q3.04 0 5.12 1.4 2.12 1.36 3.2 3.84t1.08 5.76zm-16.68 0q0 4.12 1.72 6.64 1.76 2.48 5.44 2.48 3.72 0 5.44-2.52t1.72-6.6q0-2.64-0.72-4.68t-2.28-3.2-4.08-1.16q-3.6 0-5.44 2.4-1.8 2.4-1.8 6.64z"/>
<path d="m1088.5 458.18h-2.28v-30.4h2.28z"/>
<path d="m1097.8 458.18h-2.28v-30.4h2.28z"/>
<path d="m1122.7 447.5q0 3.36-1.12 5.84-1.08 2.48-3.24 3.88-2.12 1.36-5.2 1.36-2.96 0-5.08-1.36t-3.28-3.84q-1.12-2.52-1.12-5.88 0-5.16 2.56-8.08t7.08-2.92q3.04 0 5.12 1.4 2.12 1.36 3.2 3.84t1.08 5.76zm-16.68 0q0 4.12 1.72 6.64 1.76 2.48 5.44 2.48 3.72 0 5.44-2.52t1.72-6.6q0-2.64-0.72-4.68t-2.28-3.2-4.08-1.16q-3.6 0-5.44 2.4-1.8 2.4-1.8 6.64z"/>
<path d="m1140.4 444.34q-0.44-1.32-0.76-2.52t-0.56-2.2h-0.12q-0.24 1-0.56 2.24-0.32 1.2-0.76 2.52l-4.48 13.8h-2.44l-6-21.28h2.4l3.56 13.12q0.48 1.8 0.8 3.16 0.32 1.32 0.52 2.36h0.12q0.2-0.96 0.52-2.28 0.36-1.32 0.88-2.92l4.4-13.44h2.32l4.24 13.44q0.44 1.44 0.8 2.8 0.4 1.36 0.6 2.36h0.12q0.12-0.96 0.44-2.32t0.8-3.16l3.48-13.12h2.32l-5.8 21.28h-2.48z"/>
<path d="m1164.6 436.54q3.6 0 5.36 1.76t1.76 5.56v14.32h-1.72l-0.4-3.6h-0.12q-1.16 1.8-2.84 2.92-1.64 1.08-4.6 1.08-3.08 0-4.84-1.52-1.76-1.56-1.76-4.44 0-3.2 2.6-4.84 2.6-1.68 7.56-1.88l3.88-0.2v-1.48q0-3.12-1.28-4.44-1.24-1.32-3.68-1.32-1.64 0-3.16 0.44t-3.04 1.16l-0.72-1.84q1.52-0.72 3.28-1.2 1.8-0.48 3.72-0.48zm1.28 11.04q-4.08 0.2-6.08 1.44-1.96 1.2-1.96 3.6 0 2 1.2 3.04 1.24 1 3.4 1 3.32 0 5.16-1.88 1.84-1.92 1.88-5.28v-2.08z"/>
<path d="m1175.1 436.9h2.4l5.08 13.2q0.64 1.8 1.12 3.2 0.48 1.36 0.76 2.44h0.12q0.6-2 1.88-5.56l4.96-13.28h2.44l-9.6 25.04q-1.08 2.84-2.56 4.36t-4 1.52q-0.76 0-1.4-0.08-0.6-0.08-1.12-0.28v-1.92q0.48 0.16 1.04 0.24 0.56 0.12 1.2 0.12 1.68 0 2.72-1.04 1.08-1.04 1.92-3.2l1.36-3.56z"/>
<path d="m1203.3 447.06q0 5.08-1.48 9.6-1.48 4.48-4.36 7.84h-2.28q2.92-3.64 4.36-8.12t1.44-9.32q0-4.88-1.48-9.32-1.44-4.48-4.36-8.12h2.32q2.88 3.48 4.36 7.92t1.48 9.52z"/>
<path d="m1231.5 431.3q-3.52 0-6.04 1.6-2.52 1.56-3.88 4.4-1.32 2.8-1.32 6.52 0 3.84 1.2 6.72 1.2 2.84 3.6 4.4 2.44 1.56 6.04 1.56 2.08 0 3.8-0.32 1.76-0.32 3.32-0.84v2.04q-1.48 0.56-3.24 0.88t-4.12 0.32q-4.32 0-7.24-1.84-2.88-1.84-4.36-5.16-1.44-3.32-1.44-7.76 0-4.24 1.6-7.52 1.64-3.32 4.68-5.2 3.08-1.88 7.44-1.88 4.16 0 7.48 1.56l-0.92 2.04q-3.08-1.52-6.6-1.52z"/>
<path d="m1246 437.5q0 0.84-0.04 1.6t-0.12 1.48h0.16q0.84-1.76 2.64-2.92 1.84-1.16 4.56-1.16 3.68 0 5.6 1.88t1.92 5.88v13.92h-2.24v-13.76q0-3.04-1.4-4.48-1.4-1.48-4.08-1.48-7 0-7 8.12v11.6h-2.28v-30.4h2.28z"/>
<path d="m1275.7 436.5q2.72 0 4.52 1.28 1.84 1.24 2.76 3.44 0.96 2.2 0.96 5.04v1.56h-15.2q0 4.24 1.96 6.52 2 2.24 5.68 2.24 1.96 0 3.44-0.32 1.48-0.36 3.24-1.12v2.08q-1.6 0.72-3.16 1.04t-3.6 0.32q-4.8 0-7.36-2.92t-2.56-7.96q0-3.24 1.08-5.76 1.12-2.52 3.2-3.96 2.08-1.48 5.04-1.48zm-0.04 1.92q-2.92 0-4.76 1.96-1.8 1.96-2.08 5.56h12.76q0-3.36-1.48-5.44-1.44-2.08-4.44-2.08z"/>
<path d="m1301.6 444.34q-0.44-1.32-0.76-2.52t-0.56-2.2h-0.12q-0.24 1-0.56 2.24-0.32 1.2-0.76 2.52l-4.48 13.8h-2.44l-6-21.28h2.4l3.56 13.12q0.48 1.8 0.8 3.16 0.32 1.32 0.52 2.36h0.12q0.2-0.96 0.52-2.28 0.36-1.32 0.88-2.92l4.4-13.44h2.32l4.24 13.44q0.44 1.44 0.8 2.8 0.4 1.36 0.6 2.36h0.12q0.12-0.96 0.44-2.32t0.8-3.16l3.48-13.12h2.32l-5.8 21.28h-2.48z"/>
<path d="m1319.5 453.98q-0.52 2.2-1.32 4.72t-1.72 4.64h-1.72q1.44-5.32 2.12-9.8h2.44z"/>
<path d="m1356.2 458.18h-2.8l-10.88-14.8-3.56 3.4v11.4h-2.32v-28.56h2.32v14.84q0.84-0.92 1.68-1.84 0.88-0.96 1.8-1.92l10.56-11.08h2.84l-11.6 12.16z"/>
<path d="m1367.8 436.5q2.72 0 4.52 1.28 1.84 1.24 2.76 3.44 0.96 2.2 0.96 5.04v1.56h-15.2q0 4.24 1.96 6.52 2 2.24 5.68 2.24 1.96 0 3.44-0.32 1.48-0.36 3.24-1.12v2.08q-1.6 0.72-3.16 1.04t-3.6 0.32q-4.8 0-7.36-2.92t-2.56-7.96q0-3.24 1.08-5.76 1.12-2.52 3.2-3.96 2.08-1.48 5.04-1.48zm-0.04 1.92q-2.92 0-4.76 1.96-1.8 1.96-2.08 5.56h12.76q0-3.36-1.48-5.44-1.44-2.08-4.44-2.08z"/>
<path d="m1389.3 436.54q3.6 0 5.36 1.76t1.76 5.56v14.32h-1.72l-0.4-3.6h-0.12q-1.16 1.8-2.84 2.92-1.64 1.08-4.6 1.08-3.08 0-4.84-1.52-1.76-1.56-1.76-4.44 0-3.2 2.6-4.84 2.6-1.68 7.56-1.88l3.88-0.2v-1.48q0-3.12-1.28-4.44-1.24-1.32-3.68-1.32-1.64 0-3.16 0.44t-3.04 1.16l-0.72-1.84q1.52-0.72 3.28-1.2 1.8-0.48 3.72-0.48zm1.28 11.04q-4.08 0.2-6.08 1.44-1.96 1.2-1.96 3.6 0 2 1.2 3.04 1.24 1 3.4 1 3.32 0 5.16-1.88 1.84-1.92 1.88-5.28v-2.08z"/>
<path d="m1412.7 436.5q3.64 0 5.56 1.88t1.92 5.88v13.92h-2.24v-13.76q0-3.04-1.4-4.48-1.4-1.48-4.08-1.48-7 0-7 8.12v11.6h-2.28v-21.28h1.84l0.32 3.68h0.16q0.84-1.76 2.68-2.92t4.52-1.16z"/>
<path d="m1458.9 458.18h-2.32v-13.92h-16.28v13.92h-2.32v-28.56h2.32v12.56h16.28v-12.56h2.32z"/>
<path d="m1484.2 447.5q0 3.36-1.12 5.84-1.08 2.48-3.24 3.88-2.12 1.36-5.2 1.36-2.96 0-5.08-1.36t-3.28-3.84q-1.12-2.52-1.12-5.88 0-5.16 2.56-8.08t7.08-2.92q3.04 0 5.12 1.4 2.12 1.36 3.2 3.84t1.08 5.76zm-16.68 0q0 4.12 1.72 6.64 1.76 2.48 5.44 2.48 3.72 0 5.44-2.52t1.72-6.6q0-2.64-0.72-4.68t-2.28-3.2-4.08-1.16q-3.6 0-5.44 2.4-1.8 2.4-1.8 6.64z"/>
</g>
</g>
</g>
</svg>
